<?xml version="1.0" standalone="no"?>
<!DOCTYPE svg PUBLIC "-//W3C//DTD SVG 20010904//EN"
 "http://www.w3.org/TR/2001/REC-SVG-20010904/DTD/svg10.dtd">
<svg version="1.0" xmlns="http://www.w3.org/2000/svg"
 width="369.000000pt" height="192.000000pt" viewBox="0 0 369.000000 192.000000"
 preserveAspectRatio="xMidYMid meet">

<g transform="translate(0.000000,192.000000) scale(0.100000,-0.100000)"
fill="#000000" stroke="none">
<path d="M277 1498 c-33 -42 -60 -107 -85 -199 -28 -103 -31 -126 -38 -366 -6
-192 -5 -213 10 -213 13 0 16 13 16 78 0 42 3 94 6 115 l7 37 113 0 114 0 1
-67 c1 -108 11 -157 33 -161 18 -4 18 0 11 64 -5 38 -10 101 -11 139 -2 96
-28 252 -58 360 -14 50 -33 124 -43 165 -21 88 -38 98 -76 48z m133 -413 c10
-64 9 -79 -2 -86 -7 -5 -60 -9 -117 -9 l-104 0 7 105 c7 114 40 244 82 327
l26 52 48 -156 c27 -85 54 -190 60 -233z"/>
<path d="M547 1344 c-9 -9 -8 -434 1 -494 5 -33 12 -46 26 -48 18 -4 19 1 13
102 -3 58 -3 106 0 106 14 0 102 -56 148 -95 80 -67 131 -96 144 -82 5 7 7 17
3 22 -14 19 -128 102 -200 144 -40 24 -75 47 -78 52 -9 16 21 48 71 76 94 51
169 137 137 157 -12 7 -100 -54 -171 -119 l-60 -57 -3 118 c-3 109 -11 138
-31 118z"/>
<path d="M1332 1140 c4 -131 9 -194 18 -205 21 -25 30 -7 30 64 0 90 12 107
68 92 49 -14 65 -34 93 -121 25 -76 43 -100 61 -82 9 9 9 17 0 37 -7 14 -12
33 -12 41 0 36 -53 125 -88 149 -38 26 -105 34 -117 15 -18 -28 -25 0 -25 95
0 91 -2 105 -16 105 -15 0 -16 -19 -12 -190z"/>
<path d="M1009 1292 c-27 -24 -33 -37 -37 -84 -4 -47 -1 -59 17 -77 18 -18 33
-21 110 -21 100 0 107 -4 117 -67 5 -34 2 -45 -15 -62 -19 -19 -33 -21 -125
-21 -84 0 -105 -3 -110 -15 -9 -24 19 -30 119 -29 110 2 148 17 165 70 18 53
5 119 -28 145 -23 18 -36 20 -97 16 -38 -2 -81 -1 -94 4 -21 9 -23 14 -18 56
7 66 24 75 120 67 68 -6 77 -5 77 10 0 21 -7 23 -97 30 -69 6 -74 5 -104 -22z"/>
<path d="M2060 1220 c0 -47 86 -182 130 -205 34 -18 121 -20 137 -4 9 9 15 0
24 -32 39 -144 51 -273 27 -297 -18 -18 -129 -15 -157 4 -23 16 -51 70 -51 98
0 8 12 28 26 45 19 24 34 31 60 31 27 0 34 4 34 20 0 17 -7 20 -43 20 -34 0
-49 -6 -69 -27 -41 -44 -51 -71 -43 -118 12 -84 81 -129 188 -123 58 3 73 8
88 27 30 36 24 119 -18 278 -20 76 -39 168 -42 205 -7 71 -12 84 -35 75 -11
-4 -13 -22 -9 -90 4 -52 2 -87 -5 -90 -5 -4 -32 -3 -58 2 -58 11 -82 36 -126
134 -30 65 -58 88 -58 47z"/>
<path d="M1731 1181 c-22 -22 -41 -101 -41 -167 0 -105 79 -158 148 -99 26 22
30 23 44 8 11 -11 35 -15 81 -15 71 1 107 14 107 39 0 13 -7 14 -37 9 -21 -3
-54 -9 -73 -12 -26 -4 -42 -1 -59 13 -20 16 -25 34 -34 112 l-11 94 -40 18
c-52 23 -62 23 -85 0z m88 -111 c13 -72 9 -119 -12 -132 -39 -25 -77 15 -77
80 1 154 64 191 89 52z"/>
<path d="M3100 1144 c0 -11 -5 -14 -17 -10 -9 4 -43 9 -75 13 -53 5 -65 3
-131 -30 -115 -57 -226 -163 -262 -251 -39 -93 -24 -248 32 -325 54 -75 116
-101 265 -108 97 -5 115 -3 193 21 147 46 217 136 236 304 15 129 -14 226 -97
328 -49 61 -144 99 -144 58z m-29 -49 c40 -9 81 -13 91 -9 32 10 90 -61 123
-151 28 -76 28 -81 17 -171 -17 -149 -65 -220 -177 -265 -52 -21 -76 -24 -186
-24 -120 0 -128 1 -184 30 -47 25 -63 40 -89 85 -28 50 -31 63 -31 140 1 109
22 158 107 242 65 65 189 138 233 138 13 0 56 -7 96 -15z"/>
<path d="M3047 953 c-14 -13 -6 -42 12 -48 25 -8 71 4 71 19 0 20 -68 45 -83
29z"/>
<path d="M2804 905 c-7 -17 2 -45 13 -45 19 1 45 30 40 45 -8 19 -46 20 -53 0z"/>
<path d="M3120 821 c0 -22 -53 -69 -114 -100 l-66 -34 -76 28 c-58 21 -78 25
-87 16 -9 -10 -8 -16 7 -27 27 -20 122 -54 150 -54 48 0 189 88 212 131 19 38
18 49 -6 49 -11 0 -20 -4 -20 -9z"/>
</g>
</svg>
